<?xml version="1.0" encoding="UTF-8" standalone="no"?>
<svg
   version="1.1"
   viewBox="0.0 0.0 960.0 720.0"
   fill="none"
   stroke="none"
   stroke-linecap="square"
   stroke-miterlimit="10"
   id="svg159"
   sodipodi:docname="logo.svg"
   inkscape:version="1.2.2 (b0a8486541, 2022-12-01)"
   inkscape:export-filename="logo_480x480.png"
   inkscape:export-xdpi="64"
   inkscape:export-ydpi="64"
   xmlns:inkscape="http://www.inkscape.org/namespaces/inkscape"
   xmlns:sodipodi="http://sodipodi.sourceforge.net/DTD/sodipodi-0.dtd"
   xmlns="http://www.w3.org/2000/svg"
   xmlns:svg="http://www.w3.org/2000/svg">
  <defs
     id="defs163" />
  <sodipodi:namedview
     id="namedview161"
     pagecolor="#ffffff"
     bordercolor="#666666"
     borderopacity="1.0"
     inkscape:showpageshadow="2"
     inkscape:pageopacity="0.0"
     inkscape:pagecheckerboard="0"
     inkscape:deskcolor="#d1d1d1"
     showgrid="false"
     inkscape:zoom="1.1736111"
     inkscape:cx="477.5858"
     inkscape:cy="359.57396"
     inkscape:window-width="1920"
     inkscape:window-height="1019"
     inkscape:window-x="0"
     inkscape:window-y="0"
     inkscape:window-maximized="1"
     inkscape:current-layer="svg159" />
  <clipPath
     id="p.0">
    <path
       d="m0 0l960.0 0l0 720.0l-960.0 0l0 -720.0z"
       clip-rule="nonzero"
       id="path132" />
  </clipPath>
  <g
     clip-path="url(#p.0)"
     id="g157">
    <path
       fill="#000000"
       fill-opacity="0.0"
       d="m0 0l960.0 0l0 720.0l-960.0 0z"
       fill-rule="evenodd"
       id="path135" />
    <path
       fill="#1f252d"
       d="m177.6378 158.42722l0 0c0 -55.66446 45.124954 -100.78942 100.78941 -100.78942l403.1456 0l0 0c26.731018 0 52.367188 10.618858 71.26886 29.520538c18.901672 18.90168 29.520508 44.537865 29.520508 71.26888l0 403.1456c0 55.66443 -45.12494 100.78937 -100.78937 100.78937l-403.1456 0c-55.66446 0 -100.78941 -45.12494 -100.78941 -100.78937z"
       fill-rule="evenodd"
       id="path137" />
    <path
       stroke="#1f252d"
       stroke-width="1.0"
       stroke-linejoin="round"
       stroke-linecap="butt"
       d="m177.6378 158.42722l0 0c0 -55.66446 45.124954 -100.78942 100.78941 -100.78942l403.1456 0l0 0c26.731018 0 52.367188 10.618858 71.26886 29.520538c18.901672 18.90168 29.520508 44.537865 29.520508 71.26888l0 403.1456c0 55.66443 -45.12494 100.78937 -100.78937 100.78937l-403.1456 0c-55.66446 0 -100.78941 -45.12494 -100.78941 -100.78937z"
       fill-rule="evenodd"
       id="path139" />
    <path
       fill="#000000"
       fill-opacity="0.0"
       d="m215.48032 60.913387l529.0394 0l0 484.7874l-529.0394 0z"
       fill-rule="evenodd"
       id="path141" />
    <path
       fill="#dbe9ff"
       d="m495.2426 344.01523q-1.15625 25.34375 -13.65625 44.765625q-12.5 19.40625 -35.09375 30.078125q-22.578125 10.65625 -51.578125 10.65625q-47.828125 0 -75.328125 -31.15625q-27.5 -31.171875 -27.5 -88.0l0 -12.0q0 -35.671875 12.40625 -62.421875q12.421875 -26.75 35.75 -41.328125q23.34375 -14.578125 54.015625 -14.578125q44.15625 0 70.984375 23.25q26.84375 23.25 30.5 64.078125l-58.328125 0q-0.65625 -22.171875 -11.15625 -31.828125q-10.5 -9.671875 -32.0 -9.671875q-21.84375 0 -32.015625 16.328125q-10.15625 16.328125 -10.65625 52.171875l0 17.15625q0 38.84375 9.75 55.515625q9.75 16.65625 33.578125 16.65625q20.171875 0 30.828125 -9.5q10.671875 -9.5 11.34375 -30.171875l58.15625 0zm119.51221 31.5q0 -7.15625 -7.5 -11.484375q-7.5 -4.34375 -28.5 -9.0q-21.0 -4.671875 -34.671875 -12.25q-13.671875 -7.59375 -20.84375 -18.421875q-7.15625 -10.84375 -7.15625 -24.84375q0 -24.828125 20.5 -40.90625q20.5 -16.078125 53.671875 -16.078125q35.65625 0 57.328125 16.171875q21.671875 16.15625 21.671875 42.484375l-56.34375 0q0 -21.671875 -22.828125 -21.671875q-8.828125 0 -14.828125 4.921875q-6.0 4.921875 -6.0 12.25q0 7.5 7.328125 12.171875q7.328125 4.65625 23.40625 7.65625q16.09375 3.0 28.265625 7.171875q40.65625 14.0 40.65625 50.171875q0 24.65625 -21.921875 40.15625q-21.90625 15.5 -56.734375 15.5q-23.171875 0 -41.34375 -8.328125q-18.15625 -8.328125 -28.328125 -22.65625q-10.171875 -14.34375 -10.171875 -30.171875l52.5 0q0.34375 12.5 8.34375 18.25q8.0 5.75 20.5 5.75q11.5 0 17.25 -4.671875q5.75 -4.671875 5.75 -12.171875z"
       fill-rule="nonzero"
       id="path143" />
    <path
       fill="#000000"
       fill-opacity="0.0"
       d="m216.85039 443.3071l526.2992 0l0 135.74802l-526.2992 0z"
       fill-rule="evenodd"
       id="path145" />
    <path
       fill="#87a4d3"
       d="m354.0703 522.6317q-0.328125 7.125 -3.84375 12.59375q-3.515625 5.453125 -9.875 8.453125q-6.34375 3.0 -14.5 3.0q-13.453125 0 -21.1875 -8.765625q-7.734375 -8.765625 -7.734375 -24.75l0 -3.375q0 -10.03125 3.484375 -17.546875q3.5 -7.53125 10.0625 -11.625q6.5625 -4.109375 15.1875 -4.109375q12.421875 0 19.96875 6.546875q7.546875 6.53125 8.578125 18.015625l-16.40625 0q-0.1875 -6.234375 -3.140625 -8.953125q-2.953125 -2.71875 -9.0 -2.71875q-6.140625 0 -9.0 4.59375q-2.859375 4.59375 -3.0 14.671875l0 4.828125q0 10.921875 2.734375 15.609375q2.75 4.6875 9.453125 4.6875q5.671875 0 8.671875 -2.671875q3.0 -2.671875 3.1875 -8.484375l16.359375 0zm33.609375 8.859375q0 -2.015625 -2.109375 -3.234375q-2.109375 -1.21875 -8.015625 -2.53125q-5.90625 -1.3125 -9.75 -3.4375q-3.84375 -2.140625 -5.859375 -5.1875q-2.015625 -3.046875 -2.015625 -6.984375q0 -6.984375 5.765625 -11.5q5.765625 -4.53125 15.09375 -4.53125q10.03125 0 16.125 4.546875q6.09375 4.546875 6.09375 11.953125l-15.84375 0q0 -6.09375 -6.421875 -6.09375q-2.484375 0 -4.171875 1.390625q-1.6875 1.375 -1.6875 3.4375q0 2.109375 2.0625 3.421875q2.0625 1.3125 6.578125 2.15625q4.53125 0.84375 7.953125 2.015625q11.4375 3.9375 11.4375 14.109375q0 6.9375 -6.171875 11.296875q-6.15625 4.359375 -15.953125 4.359375q-6.515625 0 -11.625 -2.34375q-5.109375 -2.34375 -7.96875 -6.375q-2.859375 -4.03125 -2.859375 -8.484375l14.765625 0q0.09375 3.515625 2.34375 5.140625q2.25 1.609375 5.765625 1.609375q3.234375 0 4.84375 -1.3125q1.625 -1.3125 1.625 -3.421875zm39.28125 14.25l-15.84375 0l0 -50.71875l15.84375 0l0 50.71875zm-16.78125 -63.796875q0 -3.375 2.4375 -5.53125q2.4375 -2.15625 6.328125 -2.15625q3.890625 0 6.328125 2.15625q2.4375 2.15625 2.4375 5.53125q0 3.375 -2.4375 5.53125q-2.4375 2.15625 -6.328125 2.15625q-3.890625 0 -6.328125 -2.15625q-2.4375 -2.15625 -2.4375 -5.53125zm43.171875 63.796875l-15.84375 0l0 -72.0l15.84375 0l0 72.0zm36.28125 -14.25q0 -2.015625 -2.109375 -3.234375q-2.109375 -1.21875 -8.015625 -2.53125q-5.90625 -1.3125 -9.75 -3.4375q-3.84375 -2.140625 -5.859375 -5.1875q-2.015625 -3.046875 -2.015625 -6.984375q0 -6.984375 5.765625 -11.5q5.765625 -4.53125 15.09375 -4.53125q10.03125 0 16.125 4.546875q6.09375 4.546875 6.09375 11.953125l-15.84375 0q0 -6.09375 -6.421875 -6.09375q-2.484375 0 -4.171875 1.390625q-1.6875 1.375 -1.6875 3.4375q0 2.109375 2.0625 3.421875q2.0625 1.3125 6.578125 2.15625q4.53125 0.84375 7.953125 2.015625q11.4375 3.9375 11.4375 14.109375q0 6.9375 -6.171875 11.296875q-6.15625 4.359375 -15.953125 4.359375q-6.515625 0 -11.625 -2.34375q-5.109375 -2.34375 -7.96875 -6.375q-2.859375 -4.03125 -2.859375 -8.484375l14.765625 0q0.09375 3.515625 2.34375 5.140625q2.25 1.609375 5.765625 1.609375q3.234375 0 4.84375 -1.3125q1.625 -1.3125 1.625 -3.421875zm41.25 2.0625l23.109375 0l0 12.1875l-43.078125 0l0 -8.8125l22.5 -29.71875l-21.515625 0l0 -12.1875l41.578125 0l0 8.53125l-22.59375 30.0zm47.4375 12.1875l-15.84375 0l0 -50.71875l15.84375 0l0 50.71875zm-16.78125 -63.796875q0 -3.375 2.4375 -5.53125q2.4375 -2.15625 6.328125 -2.15625q3.890625 0 6.328125 2.15625q2.4375 2.15625 2.4375 5.53125q0 3.375 -2.4375 5.53125q-2.4375 2.15625 -6.328125 2.15625q-3.890625 0 -6.328125 -2.15625q-2.4375 -2.15625 -2.4375 -5.53125zm41.4375 13.078125l0.515625 5.953125q5.390625 -6.890625 14.484375 -6.890625q9.609375 0 12.984375 7.640625q5.15625 -7.640625 14.90625 -7.640625q15.421875 0 15.84375 18.65625l0 33.0l-15.84375 0l0 -32.015625q0 -3.890625 -1.3125 -5.671875q-1.3125 -1.78125 -4.78125 -1.78125q-4.6875 0 -6.984375 4.171875l0.046875 0.65625l0 34.640625l-15.84375 0l0 -31.921875q0 -3.984375 -1.265625 -5.765625q-1.265625 -1.78125 -4.828125 -1.78125q-4.546875 0 -6.9375 4.171875l0 35.296875l-15.796875 0l0 -50.71875l14.8125 0z"
       fill-rule="nonzero"
       id="path147" />
    <path
       fill="#000000"
       fill-opacity="0.0"
       d="m216.85039 547.49603l526.2992 0l0 116.3465l-526.2992 0z"
       fill-rule="evenodd"
       id="path149" />
    <path
       fill="#4773bb"
       d="m367.94922 613.06305l6.453125 0l0 9.09375l-6.453125 0l0 12.3125l-11.28125 0l0 -12.3125l-23.328125 0l-0.5 -7.109375l23.703125 -37.453125l11.40625 0l0 35.46875zm-23.859375 0l12.578125 0l0 -20.078125l-0.75 1.28125l-11.828125 18.796875zm62.773438 -1.328125q-4.421875 4.328125 -10.3125 4.328125q-7.546875 0 -12.078125 -5.171875q-4.53125 -5.171875 -4.53125 -13.96875q0 -5.578125 2.4375 -10.25q2.453125 -4.671875 6.828125 -7.265625q4.375 -2.59375 9.84375 -2.59375q5.625 0 10.0 2.8125q4.375 2.8125 6.796875 8.09375q2.421875 5.265625 2.453125 12.0625l0 4.171875q0 14.21875 -7.078125 22.34375q-7.0625 8.125 -20.03125 8.6875l-2.765625 0.03125l0 -9.421875l2.5 -0.03125q14.71875 -0.671875 15.9375 -13.828125zm-7.546875 -4.296875q2.734375 0 4.703125 -1.40625q1.984375 -1.40625 3.0 -3.40625l0 -4.640625q0 -5.75 -2.1875 -8.90625q-2.1875 -3.171875 -5.859375 -3.171875q-3.40625 0 -5.59375 3.109375q-2.1875 3.109375 -2.1875 7.796875q0 4.640625 2.125 7.640625q2.140625 2.984375 6.0 2.984375zm53.445312 4.296875q-4.421875 4.328125 -10.3125 4.328125q-7.546875 0 -12.078125 -5.171875q-4.53125 -5.171875 -4.53125 -13.96875q0 -5.578125 2.4375 -10.25q2.453125 -4.671875 6.828125 -7.265625q4.375 -2.59375 9.84375 -2.59375q5.625 0 10.0 2.8125q4.375 2.8125 6.796875 8.09375q2.421875 5.265625 2.453125 12.0625l0 4.171875q0 14.21875 -7.078125 22.34375q-7.0625 8.125 -20.03125 8.6875l-2.765625 0.03125l0 -9.421875l2.5 -0.03125q14.71875 -0.671875 15.9375 -13.828125zm-7.546875 -4.296875q2.734375 0 4.703125 -1.40625q1.984375 -1.40625 3.0 -3.40625l0 -4.640625q0 -5.75 -2.1875 -8.90625q-2.1875 -3.171875 -5.859375 -3.171875q-3.40625 0 -5.59375 3.109375q-2.1875 3.109375 -2.1875 7.796875q0 4.640625 2.125 7.640625q2.140625 2.984375 6.0 2.984375zm28.085938 21.484375q0 -2.703125 1.8125 -4.375q1.828125 -1.6875 4.5625 -1.6875q2.765625 0 4.578125 1.6875q1.828125 1.671875 1.828125 4.375q0 2.65625 -1.796875 4.328125q-1.796875 1.65625 -4.609375 1.65625q-2.78125 0 -4.578125 -1.65625q-1.796875 -1.671875 -1.796875 -4.328125zm60.476562 -17.96875q0 11.796875 -4.890625 18.046875q-4.875 6.25 -14.296875 6.25q-9.296875 0 -14.21875 -6.125q-4.921875 -6.140625 -5.03125 -17.59375l0 -10.46875q0 -11.90625 4.9375 -18.078125q4.9375 -6.171875 14.234375 -6.171875q9.296875 0 14.21875 6.109375q4.921875 6.109375 5.046875 17.5625l0 10.46875zm-11.296875 -11.484375q0 -7.078125 -1.9375 -10.296875q-1.921875 -3.21875 -6.03125 -3.21875q-3.984375 0 -5.875 3.0625q-1.890625 3.0625 -2.015625 9.59375l0 13.828125q0 6.953125 1.890625 10.328125q1.90625 3.375 6.078125 3.375q4.140625 0 5.96875 -3.234375q1.84375 -3.25 1.921875 -9.921875l0 -13.515625zm57.195312 11.484375q0 11.796875 -4.890625 18.046875q-4.875 6.25 -14.296875 6.25q-9.296875 0 -14.21875 -6.125q-4.921875 -6.140625 -5.03125 -17.59375l0 -10.46875q0 -11.90625 4.9375 -18.078125q4.9375 -6.171875 14.234375 -6.171875q9.296875 0 14.21875 6.109375q4.921875 6.109375 5.046875 17.5625l0 10.46875zm-11.296875 -11.484375q0 -7.078125 -1.9375 -10.296875q-1.921875 -3.21875 -6.03125 -3.21875q-3.984375 0 -5.875 3.0625q-1.890625 3.0625 -2.015625 9.59375l0 13.828125q0 6.953125 1.890625 10.328125q1.90625 3.375 6.078125 3.375q4.140625 0 5.96875 -3.234375q1.84375 -3.25 1.921875 -9.921875l0 -13.515625zm20.585938 7.03125l3.28125 -28.90625l31.875 0l0 9.40625l-22.609375 0l-1.40625 12.234375q4.015625 -2.15625 8.546875 -2.15625q8.125 0 12.734375 5.046875q4.609375 5.03125 4.609375 14.09375q0 5.515625 -2.328125 9.875q-2.3125 4.34375 -6.65625 6.75q-4.328125 2.40625 -10.234375 2.40625q-5.15625 0 -9.578125 -2.09375q-4.40625 -2.09375 -6.96875 -5.875q-2.546875 -3.796875 -2.703125 -8.640625l11.171875 0q0.34375 3.5625 2.46875 5.53125q2.140625 1.96875 5.578125 1.96875q3.828125 0 5.890625 -2.75q2.078125 -2.75 2.078125 -7.796875q0 -4.84375 -2.390625 -7.421875q-2.375 -2.578125 -6.75 -2.578125q-4.03125 0 -6.53125 2.109375l-1.09375 1.015625l-8.984375 -2.21875z"
       fill-rule="nonzero"
       id="path151" />
    <path
       fill="#000000"
       fill-opacity="0.0"
       d="m216.85039 75.055115l526.2992 0l0 116.346466l-526.2992 0z"
       fill-rule="evenodd"
       id="path153" />
    <path
       fill="#4773bb"
       d="m475.03906 120.26272q0 4.140625 -2.078125 7.34375q-2.0625 3.2031326 -5.6875 5.1250076q4.140625 1.984375 6.5625 5.484375q2.421875 3.5 2.421875 8.21875q0 7.578125 -5.15625 11.984375q-5.15625 4.390625 -14.03125 4.390625q-8.859375 0 -14.0625 -4.40625q-5.1875 -4.421875 -5.1875 -11.96875q0 -4.71875 2.421875 -8.234375q2.421875 -3.515625 6.515625 -5.46875q-3.625 -1.921875 -5.6875 -5.1250076q-2.046875 -3.203125 -2.046875 -7.34375q0 -7.265625 4.84375 -11.578125q4.84375 -4.3125 13.171875 -4.3125q8.28125 0 13.140625 4.28125q4.859375 4.265625 4.859375 11.609375zm-10.109375 25.359383q0 -3.71875 -2.15625 -5.9375q-2.140625 -2.234375 -5.78125 -2.234375q-3.59375 0 -5.75 2.21875q-2.140625 2.203125 -2.140625 5.953125q0 3.625 2.109375 5.859375q2.109375 2.21875 5.859375 2.21875q3.671875 0 5.765625 -2.140625q2.09375 -2.15625 2.09375 -5.9375zm-1.171875 -24.812508q0 -3.3125 -1.765625 -5.328125q-1.75 -2.015625 -4.953125 -2.015625q-3.171875 0 -4.9375 1.953125q-1.75 1.953125 -1.75 5.390625q0 3.40625 1.75 5.484375q1.765625 2.0625076 4.96875 2.0625076q3.203125 0 4.9375 -2.0625076q1.75 -2.078125 1.75 -5.484375zm57.179688 -0.546875q0 4.140625 -2.078125 7.34375q-2.0625 3.2031326 -5.6875 5.1250076q4.140625 1.984375 6.5625 5.484375q2.421875 3.5 2.421875 8.21875q0 7.578125 -5.15625 11.984375q-5.15625 4.390625 -14.03125 4.390625q-8.859375 0 -14.0625 -4.40625q-5.1875 -4.421875 -5.1875 -11.96875q0 -4.71875 2.421875 -8.234375q2.421875 -3.515625 6.515625 -5.46875q-3.625 -1.921875 -5.6875 -5.1250076q-2.046875 -3.203125 -2.046875 -7.34375q0 -7.265625 4.84375 -11.578125q4.84375 -4.3125 13.171875 -4.3125q8.28125 0 13.140625 4.28125q4.859375 4.265625 4.859375 11.609375zm-10.109375 25.359383q0 -3.71875 -2.15625 -5.9375q-2.140625 -2.234375 -5.78125 -2.234375q-3.59375 0 -5.75 2.21875q-2.140625 2.203125 -2.140625 5.953125q0 3.625 2.109375 5.859375q2.109375 2.21875 5.859375 2.21875q3.671875 0 5.765625 -2.140625q2.09375 -2.15625 2.09375 -5.9375zm-1.171875 -24.812508q0 -3.3125 -1.765625 -5.328125q-1.75 -2.015625 -4.953125 -2.015625q-3.171875 0 -4.9375 1.953125q-1.75 1.953125 -1.75 5.390625q0 3.40625 1.75 5.484375q1.765625 2.0625076 4.96875 2.0625076q3.203125 0 4.9375 -2.0625076q1.75 -2.078125 1.75 -5.484375z"
       fill-rule="nonzero"
       id="path155" />
  </g>
</svg>
